<svg version="1.2" xmlns="http://www.w3.org/2000/svg" viewBox="0 0 165 166" width="165" height="166"><defs><linearGradient id="P" gradientUnits="userSpaceOnUse"/><radialGradient id="g1" cx="90.5" cy="75.2" r="124.4" href="#P"><stop stop-color="#ffffff"/><stop offset="1" stop-color="#c0cac8"/></radialGradient><radialGradient id="g2" cx="90.5" cy="75.2" r="120.8" href="#P"><stop stop-color="#e0e5e3"/><stop offset="1" stop-color="#ffffff"/></radialGradient><radialGradient id="g3" cx="90.5" cy="75.2" r="117.2" href="#P"><stop stop-color="#1f5fb2"/><stop offset="1" stop-color="#134faa"/></radialGradient><linearGradient id="g4" x1="1.5" y1="68.3" x2="83.6" y2="-13.8" href="#P"><stop stop-color="#1f5fb2"/><stop offset="1" stop-color="#134faa"/></linearGradient><linearGradient id="g5" x1="98.6" y1="-13" x2="143.4" y2="42.5" href="#P"><stop offset=".1" stop-color="#ffffff"/><stop offset=".8" stop-color="#020407"/></linearGradient></defs><style>.s0{opacity: 0;fill:#f6f6f6}.s1{opacity: 0;fill:#f5f5f5}.s2{opacity: 0;fill:#f4f4f4}.s3{opacity: 0;fill:#f3f3f3}.s4{opacity: 0;fill:#f2f2f2}.s5{opacity: 0;fill:#f1f1f1}.s6{opacity: 0;fill:#f0f0f0}.s7{opacity: 0;fill:#efefef}.s8{opacity: .1;fill:#eeeeee}.s9{opacity: .1;fill:#ededed}.s10{opacity: .1;fill:#ececec}.s11{opacity: .1;fill:#ebebeb}.s12{opacity: .1;fill:#eaeaea}.s13{opacity: .1;fill:#e9e9e9}.s14{opacity: .1;fill:#e8e8e8}.s15{opacity: .1;fill:#e7e7e7}.s16{opacity: .1;fill:#e6e6e6}.s17{opacity: .1;fill:#e5e5e5}.s18{opacity: .1;fill:#e4e4e4}.s19{opacity: .1;fill:#e3e3e3}.s20{opacity: .1;fill:#e2e2e2}.s21{opacity: .1;fill:#e1e1e1}.s22{opacity: .1;fill:#e0e0e0}.s23{opacity: .1;fill:#dfdfdf}.s24{opacity: .1;fill:#dedede}.s25{opacity: .2;fill:#dddddd}.s26{opacity: .2;fill:#dcdcdc}.s27{opacity: .2;fill:#dbdbdb}.s28{opacity: .2;fill:#dadada}.s29{opacity: .2;fill:#d9d9d9}.s30{opacity: .2;fill:#d8d8d8}.s31{opacity: .2;fill:#d7d7d7}.s32{opacity: .2;fill:#d6d6d6}.s33{opacity: .2;fill:#d5d5d5}.s34{opacity: .2;fill:#d4d4d4}.s35{opacity: .2;fill:#d3d3d3}.s36{opacity: .2;fill:#d2d2d2}.s37{opacity: .2;fill:#d1d1d1}.s38{opacity: .2;fill:#d0d0d0}.s39{opacity: .2;fill:#cfcfcf}.s40{opacity: .3;fill:#cecece}.s41{opacity: .3;fill:#cdcdcd}.s42{opacity: .3;fill:#cccccc}.s43{opacity: .3;fill:#cbcbcb}.s44{opacity: .3;fill:#cacaca}.s45{opacity: .3;fill:#c9c9c9}.s46{opacity: .3;fill:#c8c8c8}.s47{opacity: .3;fill:#c7c7c7}.s48{opacity: .3;fill:#c6c6c6}.s49{opacity: .3;fill:#c5c5c5}.s50{opacity: .3;fill:#c4c4c4}.s51{opacity: .3;fill:#c3c3c3}.s52{opacity: .3;fill:#c2c2c2}.s53{opacity: .3;fill:#c1c1c1}.s54{opacity: .3;fill:#c0c0c0}.s55{opacity: .3;fill:#bfbfbf}.s56{opacity: .3;fill:#bebebe}.s57{opacity: .4;fill:#bdbdbd}.s58{opacity: .4;fill:#bcbcbc}.s59{opacity: .4;fill:#bbbbbb}.s60{opacity: .4;fill:#bababa}.s61{opacity: .4;fill:#b9b9b9}.s62{opacity: .4;fill:#b8b8b8}.s63{opacity: .4;fill:#b7b7b7}.s64{opacity: .4;fill:#b6b6b6}.s65{opacity: .4;fill:#b5b5b5}.s66{opacity: .4;fill:#b4b4b4}.s67{opacity: .4;fill:#b3b3b3}.s68{opacity: .4;fill:#b2b2b2}.s69{opacity: .4;fill:#b1b1b1}.s70{opacity: .4;fill:#b0b0b0}.s71{opacity: .4;fill:#afafaf}.s72{opacity: .5;fill:#aeaeae}.s73{opacity: .5;fill:#adadad}.s74{opacity: .5;fill:#acacac}.s75{opacity: .5;fill:#ababab}.s76{opacity: .5;fill:#aaaaaa}.s77{opacity: .5;fill:#a9a9a9}.s78{opacity: .5;fill:#a8a8a8}.s79{opacity: .5;fill:#a7a7a7}.s80{opacity: .5;fill:#a7a7a6}.s81{opacity: .5;fill:#a6a6a5}.s82{opacity: .5;fill:#a5a5a4}.s83{opacity: .5;fill:#a4a4a3}.s84{opacity: .5;fill:#a3a3a2}.s85{opacity: .5;fill:#a2a2a1}.s86{opacity: .5;fill:#a1a1a0}.s87{opacity: .5;fill:#a0a09f}.s88{opacity: .5;fill:#9f9f9e}.s89{opacity: .6;fill:#9e9e9d}.s90{opacity: .6;fill:#9d9d9c}.s91{opacity: .6;fill:#9c9c9b}.s92{opacity: .6;fill:#9b9b9a}.s93{opacity: .6;fill:#9a9a99}.s94{opacity: .6;fill:#999998}.s95{opacity: .6;fill:#989897}.s96{opacity: .6;fill:#979796}.s97{opacity: .6;fill:#969695}.s98{opacity: .6;fill:#959594}.s99{opacity: .6;fill:#949493}.s100{opacity: .6;fill:#939392}.s101{opacity: .6;fill:#929291}.s102{opacity: .6;fill:#919190}.s103{opacity: .6;fill:#90908f}.s104{opacity: .7;fill:#8f8f8e}.s105{opacity: .7;fill:#8e8e8d}.s106{opacity: .7;fill:#8d8d8c}.s107{opacity: .7;fill:#8c8c8b}.s108{opacity: .7;fill:#8b8b8a}.s109{opacity: .7;fill:#8a8a89}.s110{opacity: .7;fill:#898988}.s111{opacity: .7;fill:#888887}.s112{opacity: .7;fill:#878786}.s113{opacity: .7;fill:#868685}.s114{opacity: .7;fill:#858584}.s115{opacity: .7;fill:#848483}.s116{opacity: .7;fill:#838382}.s117{opacity: .7;fill:#828281}.s118{opacity: .7;fill:#818180}.s119{opacity: .7;fill:#80807f}.s120{opacity: .7;fill:#7f7f7e}.s121{opacity: .8;fill:#7e7e7d}.s122{opacity: .8;fill:#7d7d7c}.s123{opacity: .8;fill:#7c7c7b}.s124{opacity: .8;fill:#7b7b7a}.s125{opacity: .8;fill:#7a7a79}.s126{opacity: .8;fill:#797978}.s127{opacity: .8;fill:#787877}.s128{opacity: .8;fill:#777776}.s129{opacity: .8;fill:#767675}.s130{opacity: .8;fill:#757574}.s131{opacity: .8;fill:#747473}.s132{opacity: .8;fill:#737372}.s133{opacity: .8;fill:#727271}.s134{opacity: .8;fill:#717170}.s135{opacity: .8;fill:#70706f}.s136{opacity: .9;fill:#6f6f6e}.s137{opacity: .9;fill:#6e6e6d}.s138{opacity: .9;fill:#6d6d6c}.s139{opacity: .9;fill:#6c6c6b}.s140{opacity: .9;fill:#6b6b6a}.s141{opacity: .9;fill:#6a6a69}.s142{opacity: .9;fill:#696968}.s143{opacity: .9;fill:#686867}.s144{opacity: .9;fill:#676766}.s145{opacity: .9;fill:#666665}.s146{opacity: .9;fill:#656564}.s147{opacity: .9;fill:#646463}.s148{opacity: .9;fill:#636362}.s149{opacity: .9;fill:#626261}.s150{opacity: .9;fill:#616160}.s151{opacity: .9;fill:#60605f}.s152{opacity: .9;fill:#5f5f5e}.s153{opacity: 1;fill:#5e5e5d}.s154{opacity: 1;fill:#5d5d5c}.s155{opacity: 1;fill:#5c5c5b}.s156{opacity: 1;fill:#5b5b5a}.s157{opacity: 1;fill:#5a5a59}.s158{opacity: 1;fill:#595958}.s159{opacity: 1;fill:#585857}.s160{fill:#575756}.s161{fill:url(#g1)}.s162{fill:url(#g2)}.s163{fill:url(#g3)}.s164{fill:url(#g4)}.s165{opacity: .3;mix-blend-mode: screen;fill:url(#g5)}.s166{fill:#ffffff}</style><g style="opacity: .5"><path class="s0" d="m165.3 83.1c0 45.7-37 82.7-82.8 82.7c-45.7 0-82.7-37-82.7-82.7c0-45.7 37-82.8 82.7-82.8c45.8 0 82.8 37.1 82.8 82.8z" /><path class="s1" d="m165.2 83.1c0 45.6-37 82.6-82.7 82.6c-45.6 0-82.6-37-82.6-82.6c0-45.6 37-82.6 82.6-82.6c45.7 0 82.7 37 82.7 82.6z" /><path class="s2" d="m165 83.1c0 45.6-36.9 82.5-82.5 82.5c-45.5 0-82.5-36.9-82.5-82.5c0-45.6 37-82.5 82.5-82.5c45.6 0 82.5 36.9 82.5 82.5z" /><path class="s3" d="m164.9 83.1c0 45.5-36.9 82.4-82.4 82.4c-45.4 0-82.3-36.9-82.3-82.4c0-45.5 36.9-82.4 82.3-82.4c45.5 0 82.4 36.9 82.4 82.4z" /><path class="s4" d="m164.8 83.1c0 45.4-36.8 82.2-82.3 82.2c-45.4 0-82.2-36.8-82.2-82.2c0-45.4 36.8-82.3 82.2-82.3c45.5 0 82.3 36.9 82.3 82.3z" /><path class="s5" d="m164.7 83.1c0 45.3-36.8 82.1-82.2 82.1c-45.3 0-82.1-36.8-82.1-82.1c0-45.4 36.8-82.1 82.1-82.1c45.4 0 82.2 36.7 82.2 82.1z" /><path class="s6" d="m164.5 83.1c0 45.3-36.7 82-82 82c-45.2 0-81.9-36.7-81.9-82c0-45.3 36.7-82 81.9-82c45.3 0 82 36.7 82 82z" /><path class="s7" d="m164.4 83.1c0 45.2-36.6 81.8-81.9 81.8c-45.2 0-81.8-36.6-81.8-81.8c0-45.2 36.6-81.9 81.8-81.9c45.3 0 81.9 36.7 81.9 81.9z" /><path class="s8" d="m164.3 83.1c0 45.1-36.6 81.7-81.8 81.7c-45.1 0-81.7-36.6-81.7-81.7c0-45.2 36.6-81.7 81.7-81.7c45.2 0 81.8 36.5 81.8 81.7z" /><path class="s9" d="m164.1 83.1c0 45.1-36.5 81.6-81.6 81.6c-45 0-81.6-36.5-81.6-81.6c0-45.1 36.6-81.6 81.6-81.6c45.1 0 81.6 36.5 81.6 81.6z" /><path class="s10" d="m164 83.1c0 45-36.5 81.5-81.5 81.5c-45 0-81.4-36.5-81.4-81.5c0-45 36.4-81.5 81.4-81.5c45 0 81.5 36.5 81.5 81.5z" /><path class="s11" d="m163.9 83.1c0 44.9-36.4 81.3-81.4 81.3c-44.9 0-81.3-36.4-81.3-81.3c0-44.9 36.4-81.4 81.3-81.4c45 0 81.4 36.5 81.4 81.4z" /><path class="s12" d="m163.8 83.1c0 44.8-36.4 81.2-81.3 81.2c-44.8 0-81.2-36.4-81.2-81.2c0-44.9 36.4-81.2 81.2-81.2c44.9 0 81.3 36.3 81.3 81.2z" /><path class="s13" d="m163.6 83.1c0 44.8-36.3 81.1-81.1 81.1c-44.7 0-81-36.3-81-81.1c0-44.8 36.3-81.1 81-81.1c44.8 0 81.1 36.3 81.1 81.1z" /><path class="s14" d="m163.5 83.1c0 44.7-36.2 80.9-81 80.9c-44.7 0-80.9-36.2-80.9-80.9c0-44.7 36.2-81 80.9-81c44.8 0 81 36.3 81 81z" /><path class="s15" d="m163.4 83.1c0 44.6-36.2 80.8-80.9 80.8c-44.6 0-80.8-36.2-80.8-80.8c0-44.7 36.2-80.8 80.8-80.8c44.7 0 80.9 36.1 80.9 80.8z" /><path class="s16" d="m163.2 83.1c0 44.6-36.1 80.7-80.7 80.7c-44.5 0-80.7-36.1-80.7-80.7c0-44.6 36.2-80.7 80.7-80.7c44.6 0 80.7 36.1 80.7 80.7z" /><path class="s17" d="m163.1 83.1c0 44.5-36.1 80.6-80.6 80.6c-44.5 0-80.5-36.1-80.5-80.6c0-44.5 36-80.6 80.5-80.6c44.5 0 80.6 36.1 80.6 80.6z" /><path class="s18" d="m163 83.1c0 44.4-36 80.4-80.5 80.4c-44.4 0-80.4-36-80.4-80.4c0-44.4 36-80.5 80.4-80.5c44.5 0 80.5 36.1 80.5 80.5z" /><path class="s19" d="m162.9 83.1c0 44.3-36 80.3-80.4 80.3c-44.3 0-80.3-36-80.3-80.3c0-44.4 36-80.3 80.3-80.3c44.4 0 80.4 35.9 80.4 80.3z" /><path class="s20" d="m162.7 83.1c0 44.3-35.9 80.2-80.2 80.2c-44.2 0-80.1-35.9-80.1-80.2c0-44.3 35.9-80.2 80.1-80.2c44.3 0 80.2 35.9 80.2 80.2z" /><path class="s21" d="m162.6 83.1c0 44.2-35.8 80-80.1 80c-44.2 0-80-35.8-80-80c0-44.2 35.8-80.1 80-80.1c44.3 0 80.1 35.9 80.1 80.1z" /><path class="s22" d="m162.5 83.1c0 44.1-35.8 79.9-80 79.9c-44.1 0-79.9-35.8-79.9-79.9c0-44.2 35.8-79.9 79.9-79.9c44.2 0 80 35.7 80 79.9z" /><path class="s23" d="m162.4 83.1c0 44.1-35.8 79.8-79.9 79.8c-44 0-79.8-35.7-79.8-79.8c0-44.1 35.8-79.8 79.8-79.8c44.1 0 79.9 35.7 79.9 79.8z" /><path class="s24" d="m162.2 83.1c0 44-35.6 79.7-79.7 79.7c-44 0-79.6-35.7-79.6-79.7c0-44 35.6-79.7 79.6-79.7c44.1 0 79.7 35.7 79.7 79.7z" /><path class="s25" d="m162.1 83.1c0 43.9-35.6 79.5-79.6 79.5c-43.9 0-79.5-35.6-79.5-79.5c0-43.9 35.6-79.6 79.5-79.6c44 0 79.6 35.7 79.6 79.6z" /><path class="s26" d="m162 83.1c0 43.8-35.6 79.4-79.5 79.4c-43.8 0-79.4-35.6-79.4-79.4c0-43.9 35.6-79.4 79.4-79.4c43.9 0 79.5 35.5 79.5 79.4z" /><path class="s27" d="m161.8 83.1c0 43.8-35.5 79.3-79.3 79.3c-43.7 0-79.2-35.5-79.2-79.3c0-43.8 35.5-79.3 79.2-79.3c43.8 0 79.3 35.5 79.3 79.3z" /><path class="s28" d="m161.7 83.1c0 43.7-35.4 79.2-79.2 79.2c-43.7 0-79.1-35.5-79.1-79.2c0-43.7 35.4-79.2 79.1-79.2c43.8 0 79.2 35.5 79.2 79.2z" /><path class="s29" d="m161.6 83.1c0 43.6-35.4 79-79.1 79c-43.6 0-79-35.4-79-79c0-43.7 35.4-79.1 79-79.1c43.7 0 79.1 35.4 79.1 79.1z" /><path class="s30" d="m161.5 83.1c0 43.6-35.4 78.9-79 78.9c-43.5 0-78.9-35.3-78.9-78.9c0-43.6 35.4-78.9 78.9-78.9c43.6 0 79 35.3 79 78.9z" /><path class="s31" d="m161.3 83.1c0 43.5-35.2 78.8-78.8 78.8c-43.5 0-78.7-35.3-78.7-78.8c0-43.5 35.2-78.8 78.7-78.8c43.6 0 78.8 35.3 78.8 78.8z" /><path class="s32" d="m161.2 83.1c0 43.4-35.2 78.6-78.7 78.6c-43.4 0-78.6-35.2-78.6-78.6c0-43.5 35.2-78.7 78.6-78.7c43.5 0 78.7 35.2 78.7 78.7z" /><path class="s33" d="m161.1 83.1c0 43.4-35.2 78.5-78.6 78.5c-43.3 0-78.5-35.1-78.5-78.5c0-43.4 35.2-78.5 78.5-78.5c43.4 0 78.6 35.1 78.6 78.5z" /><path class="s34" d="m160.9 83.1c0 43.3-35.1 78.4-78.4 78.4c-43.3 0-78.3-35.1-78.3-78.4c0-43.3 35-78.4 78.3-78.4c43.3 0 78.4 35.1 78.4 78.4z" /><path class="s35" d="m160.8 83.1c0 43.2-35 78.3-78.3 78.3c-43.2 0-78.2-35.1-78.2-78.3c0-43.2 35-78.3 78.2-78.3c43.3 0 78.3 35.1 78.3 78.3z" /><path class="s36" d="m160.7 83.1c0 43.1-35 78.1-78.2 78.1c-43.1 0-78.1-35-78.1-78.1c0-43.2 35-78.2 78.1-78.2c43.2 0 78.2 35 78.2 78.2z" /><path class="s37" d="m160.6 83.1c0 43.1-35 78-78.1 78c-43 0-78-34.9-78-78c0-43.1 35-78 78-78c43.1 0 78.1 34.9 78.1 78z" /><path class="s38" d="m160.4 83.1c0 43-34.8 77.9-77.9 77.9c-43 0-77.8-34.9-77.8-77.9c0-43 34.8-77.9 77.8-77.9c43.1 0 77.9 34.9 77.9 77.9z" /><path class="s39" d="m160.3 83.1c0 42.9-34.8 77.7-77.8 77.7c-42.9 0-77.7-34.8-77.7-77.7c0-43 34.8-77.8 77.7-77.8c43 0 77.8 34.8 77.8 77.8z" /><path class="s40" d="m160.2 83.1c0 42.9-34.8 77.6-77.7 77.6c-42.8 0-77.6-34.7-77.6-77.6c0-42.9 34.8-77.6 77.6-77.6c42.9 0 77.7 34.7 77.7 77.6z" /><path class="s41" d="m160 83.1c0 42.8-34.7 77.5-77.5 77.5c-42.8 0-77.5-34.7-77.5-77.5c0-42.8 34.7-77.5 77.5-77.5c42.8 0 77.5 34.7 77.5 77.5z" /><path class="s42" d="m159.9 83.1c0 42.7-34.6 77.4-77.4 77.4c-42.7 0-77.3-34.7-77.3-77.4c0-42.7 34.6-77.4 77.3-77.4c42.8 0 77.4 34.7 77.4 77.4z" /><path class="s43" d="m159.8 83.1c0 42.6-34.6 77.2-77.3 77.2c-42.6 0-77.2-34.6-77.2-77.2c0-42.7 34.6-77.3 77.2-77.3c42.7 0 77.3 34.6 77.3 77.3z" /><path class="s44" d="m159.7 83.1c0 42.6-34.6 77.1-77.2 77.1c-42.5 0-77.1-34.5-77.1-77.1c0-42.6 34.6-77.1 77.1-77.1c42.6 0 77.2 34.5 77.2 77.1z" /><path class="s45" d="m159.5 83.1c0 42.5-34.4 77-77 77c-42.5 0-76.9-34.5-76.9-77c0-42.5 34.4-77 76.9-77c42.6 0 77 34.5 77 77z" /><path class="s46" d="m159.4 83.1c0 42.4-34.4 76.8-76.9 76.8c-42.4 0-76.8-34.4-76.8-76.8c0-42.5 34.4-76.9 76.8-76.9c42.5 0 76.9 34.4 76.9 76.9z" /><path class="s47" d="m159.3 83.1c0 42.4-34.4 76.7-76.8 76.7c-42.3 0-76.7-34.3-76.7-76.7c0-42.4 34.4-76.7 76.7-76.7c42.4 0 76.8 34.3 76.8 76.7z" /><path class="s48" d="m159.1 83.1c0 42.3-34.3 76.6-76.6 76.6c-42.3 0-76.6-34.3-76.6-76.6c0-42.3 34.3-76.6 76.6-76.6c42.3 0 76.6 34.3 76.6 76.6z" /><path class="s49" d="m159 83.1c0 42.2-34.2 76.5-76.5 76.5c-42.2 0-76.4-34.3-76.4-76.5c0-42.2 34.2-76.5 76.4-76.5c42.3 0 76.5 34.3 76.5 76.5z" /><path class="s50" d="m158.9 83.1c0 42.1-34.2 76.3-76.4 76.3c-42.1 0-76.3-34.2-76.3-76.3c0-42.2 34.2-76.4 76.3-76.4c42.2 0 76.4 34.2 76.4 76.4z" /><path class="s51" d="m158.8 83.1c0 42.1-34.2 76.2-76.3 76.2c-42 0-76.2-34.1-76.2-76.2c0-42.1 34.2-76.2 76.2-76.2c42.1 0 76.3 34.1 76.3 76.2z" /><path class="s52" d="m158.6 83.1c0 42-34 76.1-76.1 76.1c-42 0-76-34.1-76-76.1c0-42 34-76.1 76-76.1c42.1 0 76.1 34.1 76.1 76.1z" /><path class="s53" d="m158.5 83.1c0 41.9-34 75.9-76 75.9c-41.9 0-75.9-34-75.9-75.9c0-42 34-76 75.9-76c42 0 76 34 76 76z" /><path class="s54" d="m158.4 83.1c0 41.9-34 75.8-75.9 75.8c-41.8 0-75.8-33.9-75.8-75.8c0-41.9 34-75.8 75.8-75.8c41.9 0 75.9 33.9 75.9 75.8z" /><path class="s55" d="m158.2 83.1c0 41.8-33.8 75.7-75.7 75.7c-41.8 0-75.7-33.9-75.7-75.7c0-41.8 33.9-75.7 75.7-75.7c41.9 0 75.7 33.9 75.7 75.7z" /><path class="s56" d="m158.1 83.1c0 41.7-33.8 75.6-75.6 75.6c-41.7 0-75.5-33.9-75.5-75.6c0-41.8 33.8-75.6 75.5-75.6c41.8 0 75.6 33.8 75.6 75.6z" /><path class="s57" d="m158 83.1c0 41.7-33.8 75.4-75.5 75.4c-41.6 0-75.4-33.7-75.4-75.4c0-41.7 33.8-75.5 75.4-75.5c41.7 0 75.5 33.8 75.5 75.5z" /><path class="s58" d="m157.9 83.1c0 41.6-33.8 75.3-75.4 75.3c-41.6 0-75.3-33.7-75.3-75.3c0-41.6 33.7-75.3 75.3-75.3c41.6 0 75.4 33.7 75.4 75.3z" /><path class="s59" d="m157.7 83.1c0 41.5-33.6 75.2-75.2 75.2c-41.5 0-75.1-33.7-75.1-75.2c0-41.5 33.6-75.2 75.1-75.2c41.6 0 75.2 33.7 75.2 75.2z" /><path class="s60" d="m157.6 83.1c0 41.4-33.6 75-75.1 75c-41.4 0-75-33.6-75-75c0-41.5 33.6-75.1 75-75.1c41.5 0 75.1 33.6 75.1 75.1z" /><path class="s61" d="m157.5 83.1c0 41.4-33.6 74.9-75 74.9c-41.3 0-74.9-33.5-74.9-74.9c0-41.4 33.6-74.9 74.9-74.9c41.4 0 75 33.5 75 74.9z" /><path class="s62" d="m157.3 83.1c0 41.3-33.4 74.8-74.8 74.8c-41.3 0-74.8-33.5-74.8-74.8c0-41.3 33.5-74.8 74.8-74.8c41.4 0 74.8 33.5 74.8 74.8z" /><path class="s63" d="m157.2 83.1c0 41.2-33.4 74.7-74.7 74.7c-41.2 0-74.6-33.5-74.6-74.7c0-41.3 33.4-74.7 74.6-74.7c41.3 0 74.7 33.4 74.7 74.7z" /><path class="s64" d="m157.1 83.1c0 41.2-33.4 74.5-74.6 74.5c-41.1 0-74.5-33.3-74.5-74.5c0-41.2 33.4-74.6 74.5-74.6c41.2 0 74.6 33.4 74.6 74.6z" /><path class="s65" d="m157 83.1c0 41.1-33.4 74.4-74.5 74.4c-41.1 0-74.4-33.3-74.4-74.4c0-41.1 33.3-74.4 74.4-74.4c41.1 0 74.5 33.3 74.5 74.4z" /><path class="s66" d="m156.8 83.1c0 41-33.2 74.3-74.3 74.3c-41 0-74.2-33.3-74.2-74.3c0-41 33.2-74.3 74.2-74.3c41.1 0 74.3 33.3 74.3 74.3z" /><path class="s67" d="m156.7 83.1c0 40.9-33.2 74.1-74.2 74.1c-40.9 0-74.1-33.2-74.1-74.1c0-41 33.2-74.2 74.1-74.2c41 0 74.2 33.2 74.2 74.2z" /><path class="s68" d="m156.6 83.1c0 40.9-33.2 74-74.1 74c-40.8 0-74-33.1-74-74c0-40.9 33.2-74 74-74c40.9 0 74.1 33.1 74.1 74z" /><path class="s69" d="m156.4 83.1c0 40.8-33 73.9-73.9 73.9c-40.8 0-73.9-33.1-73.9-73.9c0-40.8 33.1-73.9 73.9-73.9c40.9 0 73.9 33.1 73.9 73.9z" /><path class="s70" d="m156.3 83.1c0 40.7-33 73.8-73.8 73.8c-40.7 0-73.7-33.1-73.7-73.8c0-40.8 33-73.8 73.7-73.8c40.8 0 73.8 33 73.8 73.8z" /><path class="s71" d="m156.2 83.1c0 40.7-33 73.6-73.7 73.6c-40.6 0-73.6-32.9-73.6-73.6c0-40.7 33-73.7 73.6-73.7c40.7 0 73.7 33 73.7 73.7z" /><path class="s72" d="m156.1 83.1c0 40.6-33 73.5-73.6 73.5c-40.6 0-73.5-32.9-73.5-73.5c0-40.6 32.9-73.5 73.5-73.5c40.6 0 73.6 32.9 73.6 73.5z" /><path class="s73" d="m155.9 83.1c0 40.5-32.8 73.4-73.4 73.4c-40.5 0-73.3-32.9-73.3-73.4c0-40.5 32.8-73.4 73.3-73.4c40.6 0 73.4 32.9 73.4 73.4z" /><path class="s74" d="m155.8 83.1c0 40.4-32.8 73.2-73.3 73.2c-40.4 0-73.2-32.8-73.2-73.2c0-40.5 32.8-73.3 73.2-73.3c40.5 0 73.3 32.8 73.3 73.3z" /><path class="s75" d="m155.7 83.1c0 40.4-32.8 73.1-73.2 73.1c-40.3 0-73.1-32.7-73.1-73.1c0-40.4 32.8-73.1 73.1-73.1c40.4 0 73.2 32.7 73.2 73.1z" /><path class="s76" d="m155.6 83.1c0 40.3-32.7 73-73.1 73c-40.3 0-73-32.7-73-73c0-40.3 32.7-73 73-73c40.4 0 73.1 32.7 73.1 73z" /><path class="s77" d="m155.4 83.1c0 40.2-32.6 72.9-72.9 72.9c-40.2 0-72.8-32.7-72.8-72.9c0-40.3 32.6-72.9 72.8-72.9c40.3 0 72.9 32.6 72.9 72.9z" /><path class="s78" d="m155.3 83.1c0 40.2-32.6 72.7-72.8 72.7c-40.1 0-72.7-32.5-72.7-72.7c0-40.2 32.6-72.8 72.7-72.8c40.2 0 72.8 32.6 72.8 72.8z" /><path class="s79" d="m155.2 83.1c0 40.1-32.5 72.6-72.7 72.6c-40.1 0-72.6-32.5-72.6-72.6c0-40.1 32.5-72.6 72.6-72.6c40.2 0 72.7 32.5 72.7 72.6z" /><path class="s80" d="m155 83.1c0 40-32.4 72.5-72.5 72.5c-40 0-72.4-32.5-72.4-72.5c0-40.1 32.4-72.5 72.4-72.5c40.1 0 72.5 32.4 72.5 72.5z" /><path class="s81" d="m154.9 83.1c0 40-32.4 72.4-72.4 72.4c-39.9 0-72.3-32.4-72.3-72.4c0-40 32.4-72.4 72.3-72.4c40 0 72.4 32.4 72.4 72.4z" /><path class="s82" d="m154.8 83.1c0 39.9-32.4 72.2-72.3 72.2c-39.8 0-72.2-32.3-72.2-72.2c0-39.9 32.4-72.2 72.2-72.2c39.9 0 72.3 32.3 72.3 72.2z" /><path class="s83" d="m154.7 83.1c0 39.8-32.3 72.1-72.2 72.1c-39.8 0-72.1-32.3-72.1-72.1c0-39.8 32.3-72.1 72.1-72.1c39.9 0 72.2 32.3 72.2 72.1z" /><path class="s84" d="m154.5 83.1c0 39.7-32.2 72-72 72c-39.7 0-71.9-32.3-71.9-72c0-39.8 32.2-72 71.9-72c39.8 0 72 32.2 72 72z" /><path class="s85" d="m154.4 83.1c0 39.7-32.2 71.8-71.9 71.8c-39.6 0-71.8-32.1-71.8-71.8c0-39.7 32.2-71.9 71.8-71.9c39.7 0 71.9 32.2 71.9 71.9z" /><path class="s86" d="m154.3 83.1c0 39.6-32.1 71.7-71.8 71.7c-39.6 0-71.7-32.1-71.7-71.7c0-39.6 32.1-71.7 71.7-71.7c39.7 0 71.8 32.1 71.8 71.7z" /><path class="s87" d="m154.1 83.1c0 39.5-32 71.6-71.6 71.6c-39.5 0-71.5-32.1-71.5-71.6c0-39.6 32-71.6 71.5-71.6c39.6 0 71.6 32 71.6 71.6z" /><path class="s88" d="m154 83.1c0 39.5-32 71.5-71.5 71.5c-39.4 0-71.4-32-71.4-71.5c0-39.5 32-71.5 71.4-71.5c39.5 0 71.5 32 71.5 71.5z" /><path class="s89" d="m153.9 83.1c0 39.4-32 71.3-71.4 71.3c-39.4 0-71.3-31.9-71.3-71.3c0-39.4 31.9-71.4 71.3-71.4c39.4 0 71.4 32 71.4 71.4z" /><path class="s90" d="m153.8 83.1c0 39.3-31.9 71.2-71.3 71.2c-39.3 0-71.2-31.9-71.2-71.2c0-39.3 31.9-71.2 71.2-71.2c39.4 0 71.3 31.9 71.3 71.2z" /><path class="s91" d="m153.6 83.1c0 39.2-31.8 71.1-71.1 71.1c-39.2 0-71-31.9-71-71.1c0-39.3 31.8-71.1 71-71.1c39.3 0 71.1 31.8 71.1 71.1z" /><path class="s92" d="m153.5 83.1c0 39.2-31.8 70.9-71 70.9c-39.1 0-70.9-31.7-70.9-70.9c0-39.2 31.8-71 70.9-71c39.2 0 71 31.8 71 71z" /><path class="s93" d="m153.4 83.1c0 39.1-31.7 70.8-70.9 70.8c-39.1 0-70.8-31.7-70.8-70.8c0-39.1 31.7-70.8 70.8-70.8c39.2 0 70.9 31.7 70.9 70.8z" /><path class="s94" d="m153.2 83.1c0 39-31.6 70.7-70.7 70.7c-39 0-70.7-31.7-70.7-70.7c0-39.1 31.7-70.7 70.7-70.7c39.1 0 70.7 31.6 70.7 70.7z" /><path class="s95" d="m153.1 83.1c0 39-31.6 70.6-70.6 70.6c-38.9 0-70.5-31.6-70.5-70.6c0-39 31.6-70.6 70.5-70.6c39 0 70.6 31.6 70.6 70.6z" /><path class="s96" d="m153 83.1c0 38.9-31.6 70.4-70.5 70.4c-38.9 0-70.4-31.5-70.4-70.4c0-38.9 31.5-70.5 70.4-70.5c38.9 0 70.5 31.6 70.5 70.5z" /><path class="s97" d="m152.9 83.1c0 38.8-31.5 70.3-70.4 70.3c-38.8 0-70.3-31.5-70.3-70.3c0-38.8 31.5-70.3 70.3-70.3c38.9 0 70.4 31.5 70.4 70.3z" /><path class="s98" d="m152.7 83.1c0 38.7-31.4 70.2-70.2 70.2c-38.7 0-70.1-31.5-70.1-70.2c0-38.8 31.4-70.2 70.1-70.2c38.8 0 70.2 31.4 70.2 70.2z" /><path class="s99" d="m152.6 83.1c0 38.7-31.4 70-70.1 70c-38.6 0-70-31.3-70-70c0-38.7 31.4-70.1 70-70.1c38.7 0 70.1 31.4 70.1 70.1z" /><path class="s100" d="m152.5 83.1c0 38.6-31.3 69.9-70 69.9c-38.6 0-69.9-31.3-69.9-69.9c0-38.6 31.3-69.9 69.9-69.9c38.7 0 70 31.3 70 69.9z" /><path class="s101" d="m152.3 83.1c0 38.5-31.2 69.8-69.8 69.8c-38.5 0-69.8-31.3-69.8-69.8c0-38.6 31.3-69.8 69.8-69.8c38.6 0 69.8 31.2 69.8 69.8z" /><path class="s102" d="m152.2 83.1c0 38.5-31.2 69.7-69.7 69.7c-38.4 0-69.6-31.2-69.6-69.7c0-38.5 31.2-69.7 69.6-69.7c38.5 0 69.7 31.2 69.7 69.7z" /><path class="s103" d="m152.1 83.1c0 38.4-31.1 69.5-69.6 69.5c-38.4 0-69.5-31.1-69.5-69.5c0-38.4 31.1-69.6 69.5-69.6c38.5 0 69.6 31.2 69.6 69.6z" /><path class="s104" d="m152 83.1c0 38.3-31.1 69.4-69.5 69.4c-38.3 0-69.4-31.1-69.4-69.4c0-38.3 31.1-69.4 69.4-69.4c38.4 0 69.5 31.1 69.5 69.4z" /><path class="s105" d="m151.8 83.1c0 38.3-31 69.3-69.3 69.3c-38.2 0-69.2-31-69.2-69.3c0-38.3 31-69.3 69.2-69.3c38.3 0 69.3 31 69.3 69.3z" /><path class="s106" d="m151.7 83.1c0 38.2-31 69.1-69.2 69.1c-38.1 0-69.1-30.9-69.1-69.1c0-38.2 31-69.2 69.1-69.2c38.2 0 69.2 31 69.2 69.2z" /><path class="s107" d="m151.6 83.1c0 38.1-30.9 69-69.1 69c-38.1 0-69-30.9-69-69c0-38.1 30.9-69 69-69c38.2 0 69.1 30.9 69.1 69z" /><path class="s108" d="m151.4 83.1c0 38-30.8 68.9-68.9 68.9c-38 0-68.9-30.9-68.9-68.9c0-38.1 30.9-68.9 68.9-68.9c38.1 0 68.9 30.8 68.9 68.9z" /><path class="s109" d="m151.3 83.1c0 38-30.8 68.8-68.8 68.8c-37.9 0-68.7-30.8-68.7-68.8c0-38 30.8-68.8 68.7-68.8c38 0 68.8 30.8 68.8 68.8z" /><path class="s110" d="m151.2 83.1c0 37.9-30.7 68.6-68.7 68.6c-37.9 0-68.6-30.7-68.6-68.6c0-37.9 30.7-68.7 68.6-68.7c38 0 68.7 30.8 68.7 68.7z" /><path class="s111" d="m151.1 83.1c0 37.8-30.7 68.5-68.6 68.5c-37.8 0-68.5-30.7-68.5-68.5c0-37.9 30.7-68.5 68.5-68.5c37.9 0 68.6 30.6 68.6 68.5z" /><path class="s112" d="m150.9 83.1c0 37.8-30.6 68.4-68.4 68.4c-37.7 0-68.3-30.6-68.3-68.4c0-37.8 30.6-68.4 68.3-68.4c37.8 0 68.4 30.6 68.4 68.4z" /><path class="s113" d="m150.8 83.1c0 37.7-30.6 68.2-68.3 68.2c-37.7 0-68.2-30.5-68.2-68.2c0-37.7 30.5-68.3 68.2-68.3c37.7 0 68.3 30.6 68.3 68.3z" /><path class="s114" d="m150.7 83.1c0 37.6-30.5 68.1-68.2 68.1c-37.6 0-68.1-30.5-68.1-68.1c0-37.6 30.5-68.1 68.1-68.1c37.7 0 68.2 30.5 68.2 68.1z" /><path class="s115" d="m150.5 83.1c0 37.5-30.4 68-68 68c-37.5 0-68-30.5-68-68c0-37.6 30.5-68 68-68c37.6 0 68 30.4 68 68z" /><path class="s116" d="m150.4 83.1c0 37.5-30.4 67.9-67.9 67.9c-37.4 0-67.8-30.4-67.8-67.9c0-37.5 30.4-67.9 67.8-67.9c37.5 0 67.9 30.4 67.9 67.9z" /><path class="s117" d="m150.3 83.1c0 37.4-30.3 67.7-67.8 67.7c-37.4 0-67.7-30.3-67.7-67.7c0-37.4 30.3-67.8 67.7-67.8c37.5 0 67.8 30.4 67.8 67.8z" /><path class="s118" d="m150.2 83.1c0 37.3-30.3 67.6-67.7 67.6c-37.3 0-67.6-30.3-67.6-67.6c0-37.4 30.3-67.6 67.6-67.6c37.4 0 67.7 30.2 67.7 67.6z" /><path class="s119" d="m150 83.1c0 37.3-30.2 67.5-67.5 67.5c-37.2 0-67.4-30.2-67.4-67.5c0-37.3 30.2-67.5 67.4-67.5c37.3 0 67.5 30.2 67.5 67.5z" /><path class="s120" d="m149.9 83.1c0 37.2-30.2 67.3-67.4 67.3c-37.2 0-67.3-30.1-67.3-67.3c0-37.2 30.1-67.4 67.3-67.4c37.2 0 67.4 30.2 67.4 67.4z" /><path class="s121" d="m149.8 83.1c0 37.1-30.1 67.2-67.3 67.2c-37.1 0-67.2-30.1-67.2-67.2c0-37.1 30.1-67.2 67.2-67.2c37.2 0 67.3 30.1 67.3 67.2z" /><path class="s122" d="m149.6 83.1c0 37-30 67.1-67.1 67.1c-37 0-67.1-30.1-67.1-67.1c0-37.1 30.1-67.1 67.1-67.1c37.1 0 67.1 30 67.1 67.1z" /><path class="s123" d="m149.5 83.1c0 37-30 67-67 67c-36.9 0-66.9-30-66.9-67c0-37 30-67 66.9-67c37 0 67 30 67 67z" /><path class="s124" d="m149.4 83.1c0 36.9-29.9 66.8-66.9 66.8c-36.9 0-66.8-29.9-66.8-66.8c0-36.9 29.9-66.9 66.8-66.9c37 0 66.9 30 66.9 66.9z" /><path class="s125" d="m149.3 83.1c0 36.8-29.9 66.7-66.8 66.7c-36.8 0-66.7-29.9-66.7-66.7c0-36.9 29.9-66.7 66.7-66.7c36.9 0 66.8 29.8 66.8 66.7z" /><path class="s126" d="m149.1 83.1c0 36.8-29.8 66.6-66.6 66.6c-36.7 0-66.5-29.8-66.5-66.6c0-36.8 29.8-66.6 66.5-66.6c36.8 0 66.6 29.8 66.6 66.6z" /><path class="s127" d="m149 83.1c0 36.7-29.7 66.4-66.5 66.4c-36.7 0-66.4-29.7-66.4-66.4c0-36.7 29.7-66.5 66.4-66.5c36.8 0 66.5 29.8 66.5 66.5z" /><path class="s128" d="m148.9 83.1c0 36.6-29.7 66.3-66.4 66.3c-36.6 0-66.3-29.7-66.3-66.3c0-36.6 29.7-66.3 66.3-66.3c36.7 0 66.4 29.7 66.4 66.3z" /><path class="s129" d="m148.8 83.1c0 36.6-29.7 66.2-66.3 66.2c-36.5 0-66.2-29.6-66.2-66.2c0-36.6 29.7-66.2 66.2-66.2c36.6 0 66.3 29.6 66.3 66.2z" /><path class="s130" d="m148.6 83.1c0 36.5-29.6 66.1-66.1 66.1c-36.4 0-66-29.6-66-66.1c0-36.5 29.6-66.1 66-66.1c36.5 0 66.1 29.6 66.1 66.1z" /><path class="s131" d="m148.5 83.1c0 36.4-29.5 65.9-66 65.9c-36.4 0-65.9-29.5-65.9-65.9c0-36.4 29.5-66 65.9-66c36.5 0 66 29.6 66 66z" /><path class="s132" d="m148.4 83.1c0 36.3-29.5 65.8-65.9 65.8c-36.3 0-65.8-29.5-65.8-65.8c0-36.4 29.5-65.8 65.8-65.8c36.4 0 65.9 29.4 65.9 65.8z" /><path class="s133" d="m148.2 83.1c0 36.3-29.4 65.7-65.7 65.7c-36.2 0-65.6-29.4-65.6-65.7c0-36.3 29.4-65.7 65.6-65.7c36.3 0 65.7 29.4 65.7 65.7z" /><path class="s134" d="m148.1 83.1c0 36.2-29.3 65.5-65.6 65.5c-36.2 0-65.5-29.3-65.5-65.5c0-36.2 29.3-65.6 65.5-65.6c36.3 0 65.6 29.4 65.6 65.6z" /><path class="s135" d="m148 83.1c0 36.1-29.3 65.4-65.5 65.4c-36.1 0-65.4-29.3-65.4-65.4c0-36.2 29.3-65.4 65.4-65.4c36.2 0 65.5 29.2 65.5 65.4z" /><path class="s136" d="m147.9 83.1c0 36.1-29.3 65.3-65.4 65.3c-36 0-65.3-29.2-65.3-65.3c0-36.1 29.3-65.3 65.3-65.3c36.1 0 65.4 29.2 65.4 65.3z" /><path class="s137" d="m147.7 83.1c0 36-29.2 65.2-65.2 65.2c-36 0-65.1-29.2-65.1-65.2c0-36 29.1-65.2 65.1-65.2c36 0 65.2 29.2 65.2 65.2z" /><path class="s138" d="m147.6 83.1c0 35.9-29.1 65-65.1 65c-35.9 0-65-29.1-65-65c0-35.9 29.1-65.1 65-65.1c36 0 65.1 29.2 65.1 65.1z" /><path class="s139" d="m147.5 83.1c0 35.8-29.1 64.9-65 64.9c-35.8 0-64.9-29.1-64.9-64.9c0-35.9 29.1-64.9 64.9-64.9c35.9 0 65 29 65 64.9z" /><path class="s140" d="m147.3 83.1c0 35.8-29 64.8-64.8 64.8c-35.7 0-64.7-29-64.7-64.8c0-35.8 29-64.8 64.7-64.8c35.8 0 64.8 29 64.8 64.8z" /><path class="s141" d="m147.2 83.1c0 35.7-28.9 64.7-64.7 64.7c-35.7 0-64.6-29-64.6-64.7c0-35.7 28.9-64.7 64.6-64.7c35.8 0 64.7 29 64.7 64.7z" /><path class="s142" d="m147.1 83.1c0 35.6-28.9 64.5-64.6 64.5c-35.6 0-64.5-28.9-64.5-64.5c0-35.7 28.9-64.6 64.5-64.6c35.7 0 64.6 28.9 64.6 64.6z" /><path class="s143" d="m147 83.1c0 35.6-28.9 64.4-64.5 64.4c-35.5 0-64.4-28.8-64.4-64.4c0-35.6 28.9-64.4 64.4-64.4c35.6 0 64.5 28.8 64.5 64.4z" /><path class="s144" d="m146.8 83.1c0 35.5-28.8 64.3-64.3 64.3c-35.5 0-64.2-28.8-64.2-64.3c0-35.5 28.7-64.3 64.2-64.3c35.5 0 64.3 28.8 64.3 64.3z" /><path class="s145" d="m146.7 83.1c0 35.4-28.7 64.1-64.2 64.1c-35.4 0-64.1-28.7-64.1-64.1c0-35.4 28.7-64.2 64.1-64.2c35.5 0 64.2 28.8 64.2 64.2z" /><path class="s146" d="m146.6 83.1c0 35.3-28.7 64-64.1 64c-35.3 0-64-28.7-64-64c0-35.4 28.7-64 64-64c35.4 0 64.1 28.6 64.1 64z" /><path class="s147" d="m146.4 83.1c0 35.3-28.6 63.9-63.9 63.9c-35.2 0-63.9-28.6-63.9-63.9c0-35.3 28.7-63.9 63.9-63.9c35.3 0 63.9 28.6 63.9 63.9z" /><path class="s148" d="m146.3 83.1c0 35.2-28.5 63.8-63.8 63.8c-35.2 0-63.7-28.6-63.7-63.8c0-35.2 28.5-63.8 63.7-63.8c35.3 0 63.8 28.6 63.8 63.8z" /><path class="s149" d="m146.2 83.1c0 35.1-28.5 63.6-63.7 63.6c-35.1 0-63.6-28.5-63.6-63.6c0-35.2 28.5-63.7 63.6-63.7c35.2 0 63.7 28.5 63.7 63.7z" /><path class="s150" d="m146.1 83.1c0 35.1-28.5 63.5-63.6 63.5c-35 0-63.5-28.4-63.5-63.5c0-35.1 28.5-63.5 63.5-63.5c35.1 0 63.6 28.4 63.6 63.5z" /><path class="s151" d="m145.9 83.1c0 35-28.3 63.4-63.4 63.4c-35 0-63.3-28.4-63.3-63.4c0-35 28.3-63.4 63.3-63.4c35.1 0 63.4 28.4 63.4 63.4z" /><path class="s152" d="m145.8 83.1c0 34.9-28.3 63.2-63.3 63.2c-34.9 0-63.2-28.3-63.2-63.2c0-34.9 28.3-63.3 63.2-63.3c35 0 63.3 28.4 63.3 63.3z" /><path class="s153" d="m145.7 83.1c0 34.8-28.3 63.1-63.2 63.1c-34.8 0-63.1-28.3-63.1-63.1c0-34.9 28.3-63.1 63.1-63.1c34.9 0 63.2 28.2 63.2 63.1z" /><path class="s154" d="m145.5 83.1c0 34.8-28.2 63-63 63c-34.7 0-63-28.2-63-63c0-34.8 28.3-63 63-63c34.8 0 63 28.2 63 63z" /><path class="s155" d="m145.4 83.1c0 34.7-28.1 62.9-62.9 62.9c-34.7 0-62.8-28.2-62.8-62.9c0-34.7 28.1-62.9 62.8-62.9c34.8 0 62.9 28.2 62.9 62.9z" /><path class="s156" d="m145.3 83.1c0 34.6-28.1 62.7-62.8 62.7c-34.6 0-62.7-28.1-62.7-62.7c0-34.7 28.1-62.8 62.7-62.8c34.7 0 62.8 28.1 62.8 62.8z" /><path class="s157" d="m145.2 83.1c0 34.6-28.1 62.6-62.7 62.6c-34.5 0-62.6-28-62.6-62.6c0-34.6 28.1-62.6 62.6-62.6c34.6 0 62.7 28 62.7 62.6z" /><path class="s158" d="m145 83.1c0 34.5-27.9 62.5-62.5 62.5c-34.5 0-62.4-28-62.4-62.5c0-34.5 27.9-62.5 62.4-62.5c34.6 0 62.5 28 62.5 62.5z" /><path class="s159" d="m144.9 83.1c0 34.4-27.9 62.3-62.4 62.3c-34.4 0-62.3-27.9-62.3-62.3c0-34.5 27.9-62.4 62.3-62.4c34.5 0 62.4 27.9 62.4 62.4z" /><path class="s160" d="m144.8 83.1c0 34.4-27.9 62.2-62.3 62.2c-34.3 0-62.2-27.8-62.2-62.2c0-34.4 27.9-62.2 62.2-62.2c34.4 0 62.3 27.8 62.3 62.2z" /></g><path class="s161" d="m90.5 145.3c-38.7 0-70.2-31.5-70.2-70.1c0-38.7 31.5-70.2 70.2-70.2c38.7 0 70.1 31.5 70.1 70.2c0 38.6-31.4 70.1-70.1 70.1z" /><path class="s162" d="m90.5 143.3c-37.6 0-68.2-30.6-68.2-68.1c0-37.6 30.6-68.2 68.2-68.2c37.6 0 68.1 30.6 68.1 68.2c0 37.5-30.5 68.1-68.1 68.1z" /><path class="s163" d="m90.5 141.3c-36.5 0-66.2-29.7-66.2-66.1c0-36.5 29.7-66.2 66.2-66.2c36.4 0 66.1 29.7 66.1 66.2c0 36.4-29.7 66.1-66.1 66.1z" /><path class="s164" d="m148.5 75.2c0 32-26 58-58 58c-22.1 0-41.3-12.3-51.1-30.5c-4.5-8.2-7-17.6-7-27.5c0-32.1 26-58.1 58.1-58.1c15.8 0 30.1 6.3 40.6 16.5c10.8 10.6 17.4 25.3 17.4 41.6z" /><path class="s165" d="m131.1 33.6c-5.6 12.6-14.1 25.1-25.3 36.3c-20.4 20.4-45 31.8-66.4 32.8c-4.5-8.2-7-17.6-7-27.5c0-32.1 26-58.1 58.1-58.1c15.8 0 30.1 6.3 40.6 16.5z" /><path class="s166" d="m61.4 64.9h11.9v40.5h-11.9z" /><path class="s166" d="m74.4 51.9c0 3.9-3.1 7.1-7.1 7.1c-3.9 0-7-3.2-7-7.1c0-3.9 3.1-7.1 7-7.1c4 0 7.1 3.2 7.1 7.1z" /><path class="s166" d="m121.2 77.8q0 0 0 27.6h-11.8v-22.7c0-4.2-3.4-7.7-7.5-7.8c-2.2 0-4.1 0.8-5.5 2.2c-1.4 1.4-2.2 3.3-2.2 5.4v22.9h-11.8v-41.1h11.8v6.6c1.1-3 3.9-5.5 6.9-6.3c9.2-2.3 20.1 2.7 20.1 13.2z" /></svg>